<?xml version="1.0" encoding="UTF-8"?>
<svg xmlns="http://www.w3.org/2000/svg" viewBox="0 0 512 512" width="512" height="512">
  <defs>
    <linearGradient id="gradient" x1="0%" y1="0%" x2="100%" y2="100%">
      <stop offset="0%" style="stop-color:#FF5C00;stop-opacity:1" />
      <stop offset="100%" style="stop-color:#FF8C00;stop-opacity:1" />
    </linearGradient>
  </defs>
  
  <!-- Background circle -->
  <circle cx="256" cy="256" r="240" fill="url(#gradient)" stroke="#000" stroke-width="8"/>
  
  <!-- Tech layers - representing the layered tech stack -->
  <path d="M256 64L64 144l192 80 192-80-192-80z" fill="#000" opacity="0.8"/>
  <path d="M64 272l192 80 192-80" fill="none" stroke="#000" stroke-width="8" stroke-linecap="round"/>
  <path d="M64 208l192 80 192-80" fill="none" stroke="#000" stroke-width="8" stroke-linecap="round"/>
  
  <!-- Central core -->
  <circle cx="256" cy="256" r="32" fill="#000"/>
  <circle cx="256" cy="256" r="16" fill="#FF5C00"/>
  
  <!-- AI neural network nodes -->
  <circle cx="256" cy="160" r="8" fill="#000"/>
  <circle cx="256" cy="352" r="8" fill="#000"/>
  <circle cx="160" cy="256" r="8" fill="#000"/>
  <circle cx="352" cy="256" r="8" fill="#000"/>
  
  <!-- Connecting lines -->
  <line x1="256" y1="160" x2="256" y2="240" stroke="#000" stroke-width="3"/>
  <line x1="256" y1="272" x2="256" y2="352" stroke="#000" stroke-width="3"/>
  <line x1="160" y1="256" x2="240" y2="256" stroke="#000" stroke-width="3"/>
  <line x1="272" y1="256" x2="352" y2="256" stroke="#000" stroke-width="3"/>
</svg>